<svg xmlns="http://www.w3.org/2000/svg" aria-hidden="true" style="position:absolute;width:0;height:0;overflow:hidden">
    <defs>
        <symbol id="icon-Logo" viewBox="0 0 83 32">
            <path fill="#fff" d="M15.85.532h50.033V7.18h.532V0H15.318v7.18h.532V.532zM15.85 23.137h-.532v7.446h51.097v-7.446h-.532v6.914H15.85v-6.914zM4.609 14.451v5.129l1.56.165v.44H.681v-.44l1.56-.165V8.553l-1.56-.201v-.421h9.147v2.619h-.574l-.682-1.942-3.964-.055v5.239h3.497l.556-1.355h.52v3.407h-.538l-.538-1.392H4.608zM19.072 19.067c-.837.879-1.979 1.319-3.426 1.319s-2.589-.44-3.426-1.319c-.837-.879-1.255-1.997-1.255-3.352s.418-2.473 1.255-3.352 1.979-1.319 3.426-1.319 2.589.44 3.426 1.319 1.256 1.997 1.256 3.352c0 1.356-.418 2.473-1.256 3.352zm-5.614-3.352c0 2.821.729 4.231 2.188 4.231s2.188-1.41 2.188-4.231c0-1.38-.162-2.424-.484-3.132-.323-.72-.891-1.081-1.704-1.081s-1.381.36-1.704 1.081c-.323.708-.484 1.752-.484 3.132zM29.826 19.067c-.837.879-1.979 1.319-3.426 1.319s-2.589-.44-3.426-1.319c-.837-.879-1.256-1.997-1.256-3.352s.419-2.473 1.256-3.352 1.979-1.319 3.426-1.319 2.589.44 3.426 1.319 1.256 1.997 1.256 3.352c0 1.356-.419 2.473-1.256 3.352zm-5.614-3.352c0 2.821.729 4.231 2.188 4.231s2.188-1.41 2.188-4.231c0-1.38-.161-2.424-.484-3.132-.323-.72-.891-1.081-1.704-1.081s-1.381.36-1.704 1.081c-.323.708-.484 1.752-.484 3.132z" style="fill:var(--color1, #fff)"/>
            <path fill="#fff" d="M36.276 20.459c-1.088 0-1.991-.372-2.708-1.117s-1.076-1.868-1.076-3.37.425-2.687 1.273-3.553c.861-.867 2.003-1.301 3.426-1.301a4.36 4.36 0 0 1 2.098.531V6.996l-1.542-.11v-.458l3.838-.311v13.646l1.524.073.018.421-3.749.22.036-1.648h-.108a3.15 3.15 0 0 1-1.274 1.209 3.81 3.81 0 0 1-1.758.421zm2.995-3.096v-5.037c-.478-.452-1.088-.678-1.829-.678-.944 0-1.59.446-1.937 1.337-.287.782-.43 1.777-.43 2.986 0 2.601.568 3.901 1.704 3.901.67 0 1.25-.293 1.74-.879.502-.586.753-1.13.753-1.63zM44.002 10.641V7.948l10.438-.037v.568L46.692 19.25l6.475.037.628-2.015h.592v2.674l-10.636.037v-.513l7.82-10.825-6.349-.037-.628 2.033h-.592zM61.759 13.791c0-1.49-.508-2.235-1.525-2.235-1.064 0-1.71.953-1.937 2.857h3.426c.024-.244.036-.452.036-.623zm-1.686 6.595c-1.279 0-2.32-.427-3.121-1.282-.789-.855-1.184-1.984-1.184-3.389s.412-2.534 1.237-3.389c.837-.855 1.895-1.282 3.175-1.282s2.236.281 2.87.843c.634.55.951 1.319.951 2.308 0 .281-.024.574-.072.879h-5.686v.641c0 1.368.167 2.406.502 3.114.335.696.837 1.044 1.507 1.044.682 0 1.297-.14 1.847-.421a3.211 3.211 0 0 0 1.309-1.227c.263.085.395.214.395.385 0 .305-.281.659-.843 1.062-.275.195-.669.366-1.184.513a6.616 6.616 0 0 1-1.704.202zM68.595 13.407a3.583 3.583 0 0 1 1.112-1.685c.55-.464 1.046-.696 1.489-.696.454 0 .759.116.915.348.155.22.233.403.233.55 0 .501-.179.861-.538 1.081-.239-.195-.598-.293-1.076-.293-.466 0-.933.153-1.399.458-.466.293-.699.617-.699.971v5.513l1.614.11v.421h-5.004v-.421l1.184-.092v-7.821l-1.453-.073v-.421l3.659-.201-.108 2.253h.072zM81.127 19.067c-.837.879-1.979 1.319-3.426 1.319s-2.589-.44-3.426-1.319c-.837-.879-1.255-1.997-1.255-3.352s.419-2.473 1.255-3.352c.837-.879 1.979-1.319 3.426-1.319s2.589.44 3.426 1.319c.837.879 1.255 1.997 1.255 3.352s-.419 2.473-1.255 3.352zm-5.613-3.352c0 2.821.729 4.231 2.188 4.231s2.188-1.41 2.188-4.231c0-1.38-.161-2.424-.484-3.132-.323-.72-.891-1.081-1.704-1.081s-1.381.36-1.704 1.081c-.323.708-.484 1.752-.484 3.132z" style="fill:var(--color1, #fff)"/>
        </symbol>
        <symbol id="icon-StrokesMenu" viewBox="0 0 32 32">
            <path stroke-linejoin="round" stroke-linecap="round" stroke-miterlimit="4" stroke-width="3" d="M5.333 8h21.333M5.333 16h10.667M5.333 24h21.333"></path>
        </symbol>
    </defs>
</svg>